<svg id="dub_n_sub" xmlns="http://www.w3.org/2000/svg" viewBox="0 0 706.65 342.99"><defs><style>.cls-1{fill:#195159;}.cls-2{fill:#54a7a7;}.cls-3{fill:#f4f8f3;}</style></defs><title>LDS_Logo</title><path class="cls-1" d="M835.44,424.7l1.72-9.14q1.31-6.23-4.63-6.24h-2.18q-5.8,0-7.11,6.24l-3.29,17.26q-.55,2.9.39,3.92a22,22,0,0,0,3.19,2.61l11.47,7.1a41.11,41.11,0,0,1,5.33,3.84,8.09,8.09,0,0,1,2.14,3.33q.67,2-.4,7.47l-4.28,22.19q-3.34,17.55-19.87,17.55h-8.27q-16.39,0-12.68-19.14l1-5.22h13.63l-1.23,5.66q-1.15,6.09,4.95,6.09h2.46q5.36,0,6.51-6.09l3.5-17.69q.55-2.9-.39-3.92a22.65,22.65,0,0,0-3.19-2.61l-11.43-7.4a29.3,29.3,0,0,1-5.47-3.92,7.1,7.1,0,0,1-2-4.13,21.53,21.53,0,0,1,.35-6.6l4.16-21.32q3.38-17.84,19.76-17.84h8.41q16.38,0,13,17.84l-2,10.15Z" transform="translate(-258.67 -224.5)"/><path class="cls-1" d="M910.28,396.71,894.07,481.1q-3.79,19.72-20.32,19.72H862.29q-16.39,0-12.58-19.87l16.19-84.25h13.63l-16.25,84.68q-1.39,6.82,4.55,6.82h5.66q5.51,0,6.9-6.82l16.25-84.68Z" transform="translate(-258.67 -224.5)"/><path class="cls-1" d="M946.38,396.71H923L904.16,495l16.53-15.36,5.13-26.36h7.54q8.12,0,6.65,7.4l-4.4,23.06q-.92,4.5-6.29,4.5h-7.23l-13.58,12.62h21.94q15.51,0,18.42-15.52l5.12-26.1q1.66-8.7-8.91-11.89l.1-.72q10.14-2,11.84-11l3.83-20Q964.5,396.71,946.38,396.71Zm.65,20.16-3.15,16.24q-1.5,7.54-9.33,7.54h-6.38l6.14-31.32h8.12Q948.52,409.32,947,416.87Z" transform="translate(-258.67 -224.5)"/><path class="cls-1" d="M867,283.94l-16.21,84.39q-3.79,19.72-20.32,19.72H819q-16.39,0-12.58-19.87l16.19-84.25h13.63L820,368.63q-1.39,6.82,4.55,6.82h5.65q5.51,0,6.9-6.82l16.25-84.68Z" transform="translate(-258.67 -224.5)"/><path class="cls-1" d="M791.45,283.94H767.67L749,381.29l16.53-15.35L779,296.56h9.57q6.09,0,4.6,7.54l-12.85,66.7q-.94,4.64-6.31,4.64H765.9l-13.58,12.62h21.89q16.38,0,19.23-15.08l13.33-69Q810.59,283.95,791.45,283.94Z" transform="translate(-258.67 -224.5)"/><path class="cls-1" d="M903.11,283.94H879.76l-19.1,99.43L877.19,368l5.35-27.53h7.54q8.12,0,6.65,7.4l-4.4,23.06q-.92,4.5-6.29,4.5h-6.21l-13.58,12.62h20.91q15.51,0,18.42-15.52l5.12-26.1q1.66-8.7-8.91-11.89l.1-.72q10.14-2,11.84-11l3.83-20Q921.23,283.95,903.11,283.94Zm.65,20.16-3.15,16.24q-1.5,7.54-9.33,7.54H884.9L891,296.56h8.12Q905.25,296.56,903.75,304.1Z" transform="translate(-258.67 -224.5)"/><path class="cls-1" d="M956.16,388.35a30.23,30.23,0,0,0-3.35-6.11,19.44,19.44,0,0,1-2.36,2.35,20.66,20.66,0,0,1-6,3.52,19.1,19.1,0,0,1-6.75,1.24,16,16,0,0,1-6.35-1.24,14,14,0,0,1-5-3.52,12.48,12.48,0,0,1-3-5.26,15,15,0,0,1-.35-6.26,14.57,14.57,0,0,1,5.39-9.24q.84-.64,1.71-1.21t1.76-1.07a21.29,21.29,0,0,1-2.66-4.73,10.22,10.22,0,0,1-.55-5.37,14.28,14.28,0,0,1,1.95-5.37,17.53,17.53,0,0,1,3.78-4.41,18.21,18.21,0,0,1,5.07-3,15.73,15.73,0,0,1,5.8-1.1,13.61,13.61,0,0,1,5.51,1.1,11.79,11.79,0,0,1,4.19,3,12,12,0,0,1,2.81,9.78h-9a4.46,4.46,0,0,0-1-3.77,4.75,4.75,0,0,0-3.76-1.56,6.36,6.36,0,0,0-4.19,1.56,5.94,5.94,0,0,0-2.2,3.77,3.59,3.59,0,0,0,.28,1.92,9.22,9.22,0,0,0,1.19,2,21.37,21.37,0,0,0,1.75,2q1,1,2,1.92t2,1.85q1.06.93,2.25,1.92,1.58,1.42,3.37,3l.93-1.49a10.58,10.58,0,0,1,1.07-1.42A22.24,22.24,0,0,1,963.77,356l1.55,8.18q-6.94,2-8.12,8.53a42.75,42.75,0,0,1,4.44,5.8,39.48,39.48,0,0,1,3.08,5.94Zm-17.25-7.54a9.14,9.14,0,0,0,4.87-1.39,9.68,9.68,0,0,0,3.48-3.59q-1.7-1.63-3.38-3.13t-3.34-2.92l-1.29-1.1q-.63-.53-1.22-1.1a15.23,15.23,0,0,0-4.67,2.81,5,5,0,0,0-1.36,2.67,6.65,6.65,0,0,0,1.54,5.48,6.41,6.41,0,0,0,2.29,1.67A7.53,7.53,0,0,0,938.92,380.81Z" transform="translate(-258.67 -224.5)"/><path class="cls-2" d="M826.93,424.7l1.72-9.14q1.31-6.23-4.63-6.24h-2.17q-5.8,0-7.11,6.24l-3.29,17.26q-.55,2.9.39,3.92a22,22,0,0,0,3.19,2.61l11.47,7.1a41.21,41.21,0,0,1,5.33,3.84,8.1,8.1,0,0,1,2.14,3.33q.66,2-.4,7.47l-4.28,22.19q-3.34,17.55-19.87,17.55h-8.26q-16.39,0-12.68-19.14l1-5.22h13.63l-1.23,5.66q-1.15,6.09,4.94,6.09h2.46q5.36,0,6.51-6.09l3.5-17.69q.55-2.9-.39-3.92a22.66,22.66,0,0,0-3.19-2.61l-11.43-7.4a29.3,29.3,0,0,1-5.47-3.92,7.11,7.11,0,0,1-2-4.13,21.53,21.53,0,0,1,.35-6.6l4.16-21.32q3.38-17.84,19.76-17.84h8.41q16.38,0,13,17.84l-2,10.15Z" transform="translate(-258.67 -224.5)"/><path class="cls-2" d="M901.77,396.71,885.56,481.1q-3.79,19.72-20.32,19.72H853.78q-16.39,0-12.58-19.87l16.19-84.25H871l-16.25,84.68q-1.39,6.82,4.55,6.82H865q5.51,0,6.9-6.82l16.25-84.68Z" transform="translate(-258.67 -224.5)"/><path class="cls-2" d="M937.87,396.71H914.53L895.65,495l16.53-15.36,5.13-26.36h7.54q8.12,0,6.65,7.4l-4.4,23.06q-.92,4.5-6.29,4.5h-7.23L900,500.82h21.94q15.51,0,18.42-15.52l5.12-26.1q1.66-8.7-8.91-11.89l.1-.72q10.14-2,11.84-11l3.83-20Q956,396.71,937.87,396.71Zm.65,20.16-3.15,16.24q-1.5,7.54-9.32,7.54h-6.38l6.14-31.32h8.12Q940,409.32,938.52,416.87Z" transform="translate(-258.67 -224.5)"/><path class="cls-2" d="M858.49,283.94l-16.21,84.39q-3.79,19.72-20.32,19.72H810.51q-16.39,0-12.58-19.87l16.19-84.25h13.63L811.5,368.63q-1.39,6.82,4.55,6.82h5.66q5.51,0,6.9-6.82l16.25-84.68Z" transform="translate(-258.67 -224.5)"/><path class="cls-2" d="M782.94,283.94H759.16l-18.7,97.35L757,365.94l13.45-69.38H780q6.09,0,4.6,7.54l-12.85,66.7q-.94,4.64-6.31,4.64h-8.05l-13.58,12.62H765.7q16.38,0,19.23-15.08l13.32-69Q802.08,283.95,782.94,283.94Z" transform="translate(-258.67 -224.5)"/><path class="cls-2" d="M894.6,283.94H871.25l-19.1,99.43L868.68,368,874,340.5h7.54q8.12,0,6.65,7.4l-4.4,23.06q-.92,4.5-6.29,4.5h-6.21l-13.58,12.62h20.91q15.51,0,18.42-15.52l5.12-26.1q1.66-8.7-8.91-11.89l.1-.72q10.14-2,11.84-11l3.83-20Q912.72,283.95,894.6,283.94Zm.65,20.16-3.15,16.24q-1.5,7.54-9.33,7.54h-6.38l6.14-31.32h8.12Q896.74,296.56,895.24,304.1Z" transform="translate(-258.67 -224.5)"/><path class="cls-2" d="M947.65,388.35a30.18,30.18,0,0,0-3.35-6.11,19.42,19.42,0,0,1-2.36,2.35,20.69,20.69,0,0,1-6,3.52,19.11,19.11,0,0,1-6.75,1.24,16,16,0,0,1-6.35-1.24,14,14,0,0,1-5-3.52,12.48,12.48,0,0,1-3-5.26,15,15,0,0,1-.35-6.26,14.57,14.57,0,0,1,5.39-9.24q.84-.64,1.71-1.21t1.76-1.07a21.29,21.29,0,0,1-2.66-4.73,10.22,10.22,0,0,1-.55-5.37,14.28,14.28,0,0,1,1.95-5.37,17.53,17.53,0,0,1,3.78-4.41,18.21,18.21,0,0,1,5.07-3,15.73,15.73,0,0,1,5.8-1.1,13.61,13.61,0,0,1,5.51,1.1,11.8,11.8,0,0,1,4.19,3,12,12,0,0,1,2.81,9.78h-9a4.46,4.46,0,0,0-1-3.77,4.75,4.75,0,0,0-3.76-1.56,6.37,6.37,0,0,0-4.19,1.56,5.94,5.94,0,0,0-2.2,3.77,3.57,3.57,0,0,0,.28,1.92,9.22,9.22,0,0,0,1.19,2,21.37,21.37,0,0,0,1.75,2q1,1,2,1.92t2,1.85q1.06.93,2.25,1.92,1.58,1.42,3.37,3l.93-1.49a10.58,10.58,0,0,1,1.07-1.42A22.24,22.24,0,0,1,955.26,356l1.55,8.18q-6.94,2-8.12,8.53a42.82,42.82,0,0,1,4.44,5.8,39.57,39.57,0,0,1,3.08,5.94Zm-17.25-7.54a9.14,9.14,0,0,0,4.87-1.39,9.68,9.68,0,0,0,3.48-3.59q-1.7-1.63-3.38-3.13T932,369.79l-1.29-1.1q-.63-.53-1.22-1.1a15.24,15.24,0,0,0-4.67,2.81,5,5,0,0,0-1.36,2.67,6.65,6.65,0,0,0,1.54,5.48,6.41,6.41,0,0,0,2.29,1.67A7.53,7.53,0,0,0,930.41,380.81Z" transform="translate(-258.67 -224.5)"/><path class="cls-2" d="M622.89,494.62a161.82,161.82,0,1,0-61.14,43.64l73.38,29.23Z" transform="translate(-258.67 -224.5)"/><path class="cls-1" d="M708.59,261.67a45.27,45.27,0,0,0-8.38-18.6,44.09,44.09,0,0,0-15.74-12.42,61.25,61.25,0,0,0-18-5.29c-12.07-1.67-23.8-.71-35.16,1.05-19.95,3.39-38.91,9.61-57.25,17,2,1,4,2.1,6,3.2q9.9-3.09,19.94-5.53a209.11,209.11,0,0,1,32.49-5.28c10.82-.78,21.71-.42,31.68,1.95s18.67,7.28,23.22,14.56,5.1,16.67,3.25,26.21-5.93,19.16-10.77,28.37c-9.95,18.45-23.21,35.58-37.54,51.68a532.78,532.78,0,0,1-46.47,45.5c-8.13,7.23-16.62,14.06-25.14,20.86s-17.27,13.31-26.1,19.7Q518,463.8,489.84,480.39A538.48,538.48,0,0,1,431.95,510c-19.82,8.47-40.26,15.62-60.9,19.2-10.27,1.65-20.63,2.47-30.3,1.23s-18.32-4.75-23.77-11.35-7.33-16.42-6.44-26.58,4-20.63,8.17-30.65A231.39,231.39,0,0,1,342,420.52q-.74-3.64-1.31-7.33C329.26,427,318.66,441.6,310,457.75c-5.29,10.22-9.91,21-12.16,33a61.32,61.32,0,0,0-.69,18.78,44.17,44.17,0,0,0,6.8,18.9,45.36,45.36,0,0,0,15,13.87,64.86,64.86,0,0,0,18.19,7,101.52,101.52,0,0,0,18.45,2.43c3.07.23,6.07.12,9.1.14s6-.28,9-.44a226.64,226.64,0,0,0,34.9-5.75,316.41,316.41,0,0,0,33.41-10,446.57,446.57,0,0,0,63-28.49q15.15-8.24,29.7-17.44c9.7-6.14,19.17-12.6,28.52-19.23,9.23-6.8,18.38-13.71,27.26-21s17.54-14.81,25.94-22.66a449.93,449.93,0,0,0,46.94-50.71c14.24-18.25,27.15-37.85,36.59-59.78a147.18,147.18,0,0,0,6-17.06,101.47,101.47,0,0,0,3.55-18.25A64.75,64.75,0,0,0,708.59,261.67Z" transform="translate(-258.67 -224.5)"/><path class="cls-1" d="M739.22,407.35A67.55,67.55,0,0,0,731.38,389a103.87,103.87,0,0,0-11.29-15.19,147.74,147.74,0,0,0-13-13,226.15,226.15,0,0,0-28.68-21.22,312.14,312.14,0,0,0-30.66-17,437,437,0,0,0-64.56-25.09q-16.51-5-33.28-8.91c-11.18-2.59-22.43-4.77-33.71-6.76-11.31-1.77-22.65-3.39-34.05-4.57s-22.84-2-34.31-2.38a435.37,435.37,0,0,0-68.95,2.77c-22.94,2.93-45.89,7.81-68,16.92a145.34,145.34,0,0,0-16.28,8.05,101,101,0,0,0-15.37,10.71,65.8,65.8,0,0,0-13.07,14.83,47.51,47.51,0,0,0-7.2,19.61,46.72,46.72,0,0,0,2.33,20.47,63.44,63.44,0,0,0,9,16.95c7.32,10,16.28,17.83,25.54,24.83,16.21,11.87,33.7,21,51.6,28.91q-1.12-3.38-2.1-6.82-8.65-4.72-17-10a208.66,208.66,0,0,1-26.64-19.8c-8.17-7.31-15.6-15.49-21-24.47s-8-18.87-6.08-27.47,8.15-15.83,16.18-21.43,17.7-9.63,27.61-12.82c20-6.2,41.49-9,63-10.33a515.25,515.25,0,0,1,64.92.68c10.84.65,21.66,1.86,32.47,3.1s21.58,2.87,32.33,4.65c21.49,3.6,42.82,8.19,63.83,13.83,10.47,2.93,21,5.84,31.24,9.33s20.5,7.13,30.52,11.24c20,8.26,39.43,17.93,56.51,30.34,8.4,6.27,16.29,13.22,22.22,21.15s9.55,16.78,8.75,25.54-6.4,17.27-14.19,24-17.39,12.09-27.38,16.38a228.55,228.55,0,0,1-48.24,13.62q-2.06,3.07-4.23,6c18.69-1.65,37.38-4.61,55.73-10.36,10.94-3.6,21.85-8.12,31.89-15.21A61.87,61.87,0,0,0,731.48,447,46.14,46.14,0,0,0,740,428.33,48.11,48.11,0,0,0,739.22,407.35Z" transform="translate(-258.67 -224.5)"/><path class="cls-3" d="M421.69,466.08h-49l30.19-157.16h20.57L396.79,447h28.46Z" transform="translate(-258.67 -224.5)"/><path class="cls-3" d="M557.83,466.08H537.91l-.14-59.76h-.44l-25.47,59.76H493l34.59-79.46-3.31-77.7h20.14l.38,58h.44l24.13-58h19l-33.25,77.7Z" transform="translate(-258.67 -224.5)"/><path class="cls-3" d="M570.75,466.08l30.19-157.16h20.57L591.32,466.08Z" transform="translate(-258.67 -224.5)"/><polygon class="cls-3" points="182.85 241.58 226.05 241.58 229.61 222.54 203.35 222.54 182.85 241.58"/><polygon class="cls-3" points="252.69 103.46 256.24 84.42 205.02 84.42 176.58 232.49 201.54 209.3 209.16 170.22 236.3 170.22 239.85 151.18 212.71 151.18 222.04 103.46 252.69 103.46"/></svg>